<svg xmlns="http://www.w3.org/2000/svg" viewBox="0 0 512 512" fill="none">
  <rect width="512" height="512" rx="96" fill="#0f172a"/>
  <g fill="#ffffff">
    <!-- QR Code Pattern -->
    <rect x="96" y="96" width="80" height="80" rx="8"/>
    <rect x="336" y="96" width="80" height="80" rx="8"/>
    <rect x="96" y="336" width="80" height="80" rx="8"/>
    <!-- Fork Icon in center -->
    <path d="M256 176c-8.8 0-16 7.2-16 16v48c0 17.7 14.3 32 32 32h16v80c0 8.8 7.2 16 16 16s16-7.2 16-16V272h16c17.7 0 32-14.3 32-32v-48c0-8.8-7.2-16-16-16s-16 7.2-16 16v48h-16v-48c0-8.8-7.2-16-16-16s-16 7.2-16 16v48h-16v-48c0-8.8-7.2-16-16-16z"/>
    <path d="M176 176c-8.8 0-16 7.2-16 16v160c0 8.8 7.2 16 16 16s16-7.2 16-16v-64h24c26.5 0 48-21.5 48-48s-21.5-48-48-48h-24c-8.8 0-16 7.2-16 16zm32 32h8c8.8 0 16 7.2 16 16s-7.2 16-16 16h-8v-32z"/>
  </g>
</svg>
